<?xml version="1.0" encoding="UTF-8"?>
<svg id="Layer_7_copy" xmlns="http://www.w3.org/2000/svg" version="1.1" viewBox="40 158 320 55">
  <!-- Generator: Adobe Illustrator 30.1.0, SVG Export Plug-In . SVG Version: 2.1.1 Build 136)  -->
  <defs>
    <style>
      .st0, .st1 {
        isolation: isolate;
      }

      .st2, .st1 {
        fill: #262626;
      }

      .st1 {
        font-family: AGaramondPro-Regular, 'Adobe Garamond Pro';
        font-size: 27px;
      }
    </style>
  </defs>
  <g>
    <path class="st2" d="M79.86,171.02s-2.55-2.39-6.15-.25c-2.86,1.7-4.32,7.43-6.64,14.49s-4.47,13.9-6.77,16.99c-1.06,1.41-3.05,3.26-4.72,2.09-2.23-1.56,1.31-5.32,1.31-5.32,0,0-3.35-.35-4.81,2.58-1.08,2.16-.24,4.74,2.47,5.91,2.43,1.05,7.02.4,10.36-5.99,2.36-4.51,4.11-10.56,5.76-15.5,1.06-3.18,2.02-5.91,2.49-7.19,1.25-3.38,2.25-6.3,5.02-7.45.71-.3,1.68-.36,1.68-.36Z"/>
    <path class="st2" d="M62.6,171.21c-.36.59-.68,1.21-.96,1.84-.1.22-.2.44-.3.67-3.43-1.58-8.75-3.88-10.86-1.22-1.46,1.47-.94,4.93,2.92,6.18.85.26,1.64.36,1.91.24.02,0,0,.13-.04.22-.11.25-.93,1.16-1.92,1.46-1.76.54-3.32-.36-3.85-.66-1.14-.63-2.27-1.81-2.82-3.23-.71-2.08-.46-3.69.77-5.49,1.53-2.24,4.23-3.11,7.02-2.89.69.05,2.4.43,3.11.67,1.68.59,3.37,1.27,5.03,2.21h0Z"/>
    <path class="st2" d="M82.28,165.11c-6.14-3.24-14.6-1.23-18.16,3.5-.53.71-1.1,1.37-1.56,2.12-.36.59-.69,1.2-.98,1.83-.1.21-.2.44-.3.66-1.91,4.27-4,10.79-5.94,15.88-.39-.08-.74-.15-1.05-.2-1.82-.21-3.86-.17-5.65.33-1.4.43-2.59,1.08-3.49,2.34-.54.76-1.69,3.34-.21,5.44,1.9,2.7,6.19,2.04,8.64.35,1.31-.9,2.62-2.59,3.57-4.34,3.71,1.13,9.02,2.71,12.44,3.4,1.09.22,1.92.26,3.13.24,2.85-.06,7.37-2.01,6.42-6.13-.1-.38-.2-.75-.33-1.07-.33-.76-.23-.69-.76.21-.85,1.45-2.08,3.77-7.48,3.04-3.24-.44-8.05-1.81-11.9-2.81,2.02-4.88,3.47-10.5,5.94-14.95,5.07,2.47,9.61,4.41,15.03,3.35,6.29-1.23,9.96-9.35,2.64-13.21v.02ZM47.81,193.69c.48-2.06,4.65-1.84,6.37-1.37-.37.83-.49,1.17-1.29,2-1.94,2.01-5.73,2.18-5.08-.63ZM81.57,174.28c-1.71,1.66-4.8,1.89-6.21,1.65-2.53-.44-4.96-1.04-7.26-2.05-.73-.36-1.23-.54-2.3-1.07.13-.27.18-.32.28-.47,1.53-2.34,3.56-4.89,6.94-5.65,2.4-.54,5.1-.06,6.59.64,1.1.51,2.06,1.28,2.66,2.17,1.08,1.62.78,3.39-.69,4.78h-.01Z"/>
  </g>
  <g class="st0">
    <text class="st1" transform="translate(97.17 193.91)"><tspan x="0" y="0">LEFTHAND SOCIAL</tspan></text>
  </g>
</svg>