<?xml version="1.0" encoding="UTF-8"?>
<svg id="Layer_7_copy" data-name="Layer 7 copy" xmlns="http://www.w3.org/2000/svg" viewBox="0 0 154.14 162.41">
  <defs>
    <style>
      .cls-1 {
        fill: #1a1a1a;
      }
    </style>
  </defs>
  <path class="cls-1" d="M130.48,27.42s-9.33-8.76-22.53-.91c-10.49,6.24-15.8,27.19-24.28,53.03-8.48,25.84-16.37,50.87-24.79,62.14-3.86,5.18-11.18,11.92-17.28,7.65-8.17-5.71,4.8-19.46,4.8-19.46,0,0-12.26-1.26-17.61,9.45-3.96,7.91-.87,17.34,9.05,21.61,8.91,3.84,25.7,1.48,37.9-21.9,8.62-16.51,15.03-38.63,21.07-56.71,3.9-11.65,7.38-21.61,9.13-26.33,4.57-12.36,8.24-23.04,18.38-27.27,2.6-1.08,6.16-1.32,6.16-1.32v.02Z"/>
  <path class="cls-1" d="M67.32,28.11c-1.3,2.16-2.48,4.43-3.52,6.75-.37.79-.73,1.61-1.08,2.44-12.55-5.77-32.01-14.21-39.73-4.47-5.35,5.39-3.42,18.04,10.68,22.63,3.11.96,6.02,1.32,6.97.89.06-.02-.02.47-.16.79-.39.92-3.4,4.25-7.04,5.35-6.43,1.97-12.14-1.34-14.09-2.4-4.17-2.3-8.32-6.61-10.33-11.83-2.6-7.6-1.67-13.5,2.83-20.09,5.59-8.19,15.47-11.39,25.68-10.59,2.54.18,8.8,1.57,11.37,2.46,6.16,2.14,12.34,4.64,18.42,8.07h0Z"/>
  <path class="cls-1" d="M139.32,5.79c-22.47-11.85-53.42-4.51-66.45,12.81-1.95,2.6-4.03,5.04-5.71,7.77-1.32,2.16-2.5,4.41-3.58,6.71-.37.79-.73,1.59-1.1,2.44-6.99,15.62-14.62,39.47-21.72,58.13-1.42-.3-2.7-.53-3.86-.73-6.65-.79-14.11-.63-20.68,1.22-5.12,1.57-9.46,3.97-12.79,8.58-1.99,2.77-6.18,12.2-.75,19.89,6.97,9.88,22.65,7.46,31.62,1.26,4.8-3.31,9.6-9.48,13.07-15.9,13.58,4.15,33.02,9.94,45.53,12.46,3.99.79,7.02.96,11.47.87,10.45-.24,26.98-7.34,23.49-22.43-.35-1.4-.71-2.75-1.22-3.92-1.22-2.79-.87-2.52-2.79.79-3.11,5.31-7.6,13.79-27.37,11.14-11.85-1.59-29.46-6.63-43.55-10.27,7.4-17.85,12.69-38.43,21.74-54.72,18.56,9.05,35.18,16.12,55,12.26,23.02-4.49,36.44-34.22,9.66-48.35h-.02ZM13.18,110.36c1.75-7.56,17-6.71,23.3-5-1.36,3.03-1.79,4.29-4.72,7.32-7.08,7.34-20.96,7.95-18.58-2.32h0ZM136.74,39.34c-6.26,6.06-17.57,6.93-22.73,6.04-9.25-1.59-18.12-3.8-26.58-7.5-2.68-1.3-4.51-1.99-8.44-3.9.47-.96.65-1.18,1.02-1.73,5.61-8.56,13.03-17.91,25.38-20.68,8.78-1.99,18.65-.22,24.12,2.34,4.01,1.89,7.54,4.66,9.72,7.95,3.94,5.92,2.85,12.4-2.52,17.49l.02-.02Z"/>
</svg>