<?xml version="1.0" encoding="UTF-8"?>
<svg id="Layer_7_copy" data-name="Layer 7 copy" xmlns="http://www.w3.org/2000/svg" viewBox="0 0 365.55 366.29">
  <defs>
    <style>
      .cls-1 {
        font-family: AGaramondPro-Regular, 'Adobe Garamond Pro';
        font-size: 18px;
      }

      .cls-1, .cls-2 {
        fill: #262626;
      }
    </style>
  </defs>
  <g>
    <path class="cls-2" d="M257.87,129.02s-4.74-4.45-11.45-.46c-5.33,3.17-8.03,13.82-12.34,26.95-4.31,13.13-8.32,25.85-12.6,31.58-1.96,2.63-5.68,6.06-8.78,3.89-4.15-2.9,2.44-9.89,2.44-9.89,0,0-6.23-.64-8.95,4.8-2.01,4.02-.44,8.81,4.6,10.98,4.53,1.95,13.06.75,19.26-11.13,4.38-8.39,7.64-19.63,10.71-28.82,1.98-5.92,3.75-10.98,4.64-13.38,2.32-6.28,4.19-11.71,9.34-13.86,1.32-.55,3.13-.67,3.13-.67Z"/>
    <path class="cls-2" d="M225.77,129.37c-.66,1.1-1.26,2.25-1.79,3.43-.19.4-.37.82-.55,1.24-6.38-2.93-16.27-7.22-20.19-2.27-2.72,2.74-1.74,9.17,5.43,11.5,1.58.49,3.06.67,3.54.45.03-.01-.01.24-.08.4-.2.47-1.73,2.16-3.58,2.72-3.27,1-6.17-.68-7.16-1.22-2.12-1.17-4.23-3.36-5.25-6.01-1.32-3.86-.85-6.86,1.44-10.21,2.84-4.16,7.86-5.79,13.05-5.38,1.29.09,4.47.8,5.78,1.25,3.13,1.09,6.27,2.36,9.36,4.1Z"/>
    <path class="cls-2" d="M262.36,118.03c-11.42-6.02-27.15-2.29-33.77,6.51-.99,1.32-2.05,2.56-2.9,3.95-.67,1.1-1.27,2.24-1.82,3.41-.19.4-.37.81-.56,1.24-3.55,7.94-7.43,20.06-11.04,29.54-.72-.15-1.37-.27-1.96-.37-3.38-.4-7.17-.32-10.51.62-2.6.8-4.81,2.02-6.5,4.36-1.01,1.41-3.14,6.2-.38,10.11,3.54,5.02,11.51,3.79,16.07.64,2.44-1.68,4.88-4.82,6.64-8.08,6.9,2.11,16.78,5.05,23.14,6.33,2.03.4,3.57.49,5.83.44,5.31-.12,13.71-3.73,11.94-11.4-.18-.71-.36-1.4-.62-1.99-.62-1.42-.44-1.28-1.42.4-1.58,2.7-3.86,7.01-13.91,5.66-6.02-.81-14.97-3.37-22.13-5.22,3.76-9.07,6.45-19.53,11.05-27.81,9.43,4.6,17.88,8.19,27.95,6.23,11.7-2.28,18.52-17.39,4.91-24.57ZM198.26,171.17c.89-3.84,8.64-3.41,11.84-2.54-.69,1.54-.91,2.18-2.4,3.72-3.6,3.73-10.65,4.04-9.44-1.18ZM261.05,135.08c-3.18,3.08-8.93,3.52-11.55,3.07-4.7-.81-9.21-1.93-13.51-3.81-1.36-.66-2.29-1.01-4.29-1.98.24-.49.33-.6.52-.88,2.85-4.35,6.62-9.1,12.9-10.51,4.46-1.01,9.48-.11,12.26,1.19,2.04.96,3.83,2.37,4.94,4.04,2,3.01,1.45,6.3-1.28,8.89Z"/>
  </g>
  <text class="cls-1" transform="translate(180.53 222.62)"><tspan x="0" y="0">LEFTHAND </tspan><tspan x="18.75" y="17">SOCIAL</tspan></text>
</svg>