<?xml version="1.0" encoding="UTF-8"?>
<svg id="Layer_7_copy" data-name="Layer 7 copy" xmlns="http://www.w3.org/2000/svg" viewBox="0 0 365.55 366.29">
  <path d="M268.38,115.99s-10.57-9.92-25.53-1.02c-11.88,7.06-17.91,30.82-27.52,60.1-9.61,29.28-18.55,57.67-28.09,70.45-4.38,5.86-12.66,13.52-19.59,8.69-9.26-6.46,5.43-22.06,5.43-22.06,0,0-13.9-1.44-19.96,10.71-4.48,8.97-.98,19.66,10.26,24.5,10.1,4.35,29.12,1.66,42.95-24.83,9.77-18.71,17.04-43.78,23.89-64.28,4.42-13.21,8.37-24.49,10.34-29.84,5.16-14.01,9.34-26.11,20.84-30.92,2.95-1.24,6.98-1.5,6.98-1.5Z"/>
  <path d="M196.78,116.78c-1.48,2.46-2.8,5.02-4,7.64-.41.9-.82,1.82-1.23,2.77-14.23-6.54-36.3-16.1-45.03-5.06-6.07,6.11-3.89,20.45,12.12,25.65,3.51,1.1,6.82,1.5,7.9,1.01.07-.03-.03.54-.18.9-.44,1.04-3.87,4.82-7.98,6.07-7.29,2.22-13.77-1.51-15.96-2.73-4.73-2.62-9.43-7.5-11.71-13.4-2.95-8.62-1.89-15.3,3.21-22.78,6.33-9.27,17.53-12.92,29.1-12,2.88.21,9.97,1.79,12.88,2.79,6.98,2.44,13.99,5.27,20.87,9.15Z"/>
  <path d="M278.39,91.48c-25.47-13.43-60.55-5.12-75.32,14.53-2.2,2.93-4.57,5.7-6.46,8.81-1.5,2.45-2.84,5-4.06,7.61-.42.89-.84,1.81-1.26,2.75-7.93,17.72-16.58,44.74-24.63,65.88-1.6-.34-3.06-.61-4.37-.82-7.55-.89-16-.71-23.44,1.38-5.8,1.79-10.73,4.49-14.5,9.73-2.26,3.14-7,13.84-.86,22.56,7.89,11.2,25.67,8.45,35.84,1.43,5.44-3.75,10.89-10.75,14.81-18.02,15.38,4.7,37.42,11.26,51.61,14.11,4.53.9,7.96,1.09,12.99.98,11.84-.27,30.59-8.32,26.63-25.42-.39-1.59-.81-3.12-1.39-4.44-1.38-3.17-.97-2.84-3.16.88-3.53,6.03-8.62,15.63-31.02,12.63-13.44-1.8-33.39-7.51-49.36-11.64,8.4-20.24,14.39-43.56,24.64-62.02,21.03,10.25,39.87,18.28,62.34,13.89,26.09-5.09,41.3-38.79,10.95-54.8ZM135.42,210.01c1.98-8.56,19.27-7.61,26.41-5.66-1.53,3.43-2.04,4.86-5.36,8.3-8.04,8.32-23.75,9.02-21.06-2.63ZM275.46,129.51c-7.08,6.88-19.92,7.84-25.77,6.84-10.49-1.8-20.55-4.3-30.12-8.5-3.03-1.48-5.1-2.25-9.56-4.43.55-1.1.74-1.33,1.17-1.96,6.35-9.7,14.77-20.29,28.78-23.45,9.95-2.25,21.15-.25,27.34,2.65,4.55,2.13,8.54,5.29,11.02,9.02,4.46,6.71,3.25,14.05-2.86,19.84Z"/>
</svg>